<svg width="128" height="128" viewBox="0 0 128 128" fill="none" xmlns="http://www.w3.org/2000/svg">
<circle opacity="0.22" cx="64" cy="68" r="40" fill="#2C9D62"/>
<circle cx="64" cy="68" r="22" fill="white"/>
<g filter="url(#filter0_b_1143_7073)">
<path d="M35 8C35 3.58172 38.5817 0 43 0H85C89.4183 0 93 3.58172 93 8V28C93 32.4183 89.4183 36 85 36H43C38.5817 36 35 32.4183 35 28V8Z" fill="#1C1C1C" fill-opacity="0.7"/>
<path d="M50.234 21.11V18.534H47.7V17.386H50.234V14.81H51.466V17.386H54V18.534H51.466V21.11H50.234ZM55.2573 23V21.922L59.1773 18.52C59.4759 18.268 59.7186 18.0393 59.9053 17.834C60.1013 17.6287 60.2553 17.4373 60.3673 17.26C60.4793 17.0733 60.5539 16.8913 60.5913 16.714C60.6379 16.5367 60.6613 16.3453 60.6613 16.14C60.6613 15.86 60.6193 15.6033 60.5353 15.37C60.4513 15.1367 60.3299 14.936 60.1713 14.768C60.0126 14.6 59.8166 14.4693 59.5833 14.376C59.3593 14.2827 59.1073 14.236 58.8273 14.236C58.4913 14.236 58.1879 14.2827 57.9173 14.376C57.6559 14.4693 57.4366 14.6093 57.2593 14.796C57.0819 14.9733 56.9466 15.1927 56.8533 15.454C56.7599 15.7153 56.7133 16.014 56.7133 16.35H55.3973C55.3973 15.874 55.4766 15.4353 55.6353 15.034C55.8033 14.6233 56.0366 14.2733 56.3353 13.984C56.6433 13.6947 57.0073 13.4707 57.4273 13.312C57.8473 13.144 58.3139 13.06 58.8273 13.06C59.3219 13.06 59.7653 13.1393 60.1573 13.298C60.5493 13.4473 60.8806 13.662 61.1513 13.942C61.4219 14.2127 61.6273 14.5347 61.7673 14.908C61.9073 15.2813 61.9773 15.692 61.9773 16.14C61.9773 16.476 61.9259 16.7887 61.8233 17.078C61.7206 17.3673 61.5759 17.6427 61.3893 17.904C61.2119 18.1653 60.9926 18.422 60.7313 18.674C60.4793 18.9167 60.1993 19.1687 59.8913 19.43L56.9653 21.852H62.1173V23H55.2573ZM67.1584 23.14C66.6824 23.14 66.2297 23.0607 65.8004 22.902C65.3804 22.7433 65.0117 22.4727 64.6944 22.09C64.377 21.698 64.125 21.18 63.9384 20.536C63.7517 19.8827 63.6584 19.0707 63.6584 18.1V17.82C63.6584 16.9147 63.7517 16.1587 63.9384 15.552C64.125 14.9453 64.377 14.46 64.6944 14.096C65.0117 13.7227 65.3804 13.4567 65.8004 13.298C66.2297 13.1393 66.6824 13.06 67.1584 13.06C67.6344 13.06 68.0824 13.1393 68.5024 13.298C68.9317 13.4567 69.305 13.7227 69.6224 14.096C69.9397 14.46 70.1917 14.9453 70.3784 15.552C70.565 16.1587 70.6584 16.9147 70.6584 17.82V18.1C70.6584 19.0707 70.565 19.8827 70.3784 20.536C70.1917 21.18 69.9397 21.698 69.6224 22.09C69.305 22.4727 68.9317 22.7433 68.5024 22.902C68.0824 23.0607 67.6344 23.14 67.1584 23.14ZM67.1584 21.992C67.457 21.992 67.737 21.9407 67.9984 21.838C68.2597 21.726 68.4884 21.53 68.6844 21.25C68.8897 20.9607 69.0484 20.564 69.1604 20.06C69.2817 19.5467 69.3424 18.8933 69.3424 18.1V17.82C69.3424 17.092 69.2817 16.4947 69.1604 16.028C69.0484 15.5613 68.8897 15.1927 68.6844 14.922C68.4884 14.6513 68.2597 14.4647 67.9984 14.362C67.737 14.2593 67.457 14.208 67.1584 14.208C66.869 14.208 66.589 14.2593 66.3184 14.362C66.057 14.4647 65.8237 14.6513 65.6184 14.922C65.4224 15.1927 65.2637 15.5613 65.1424 16.028C65.0304 16.4947 64.9744 17.092 64.9744 17.82V18.1C64.9744 18.8933 65.0304 19.5467 65.1424 20.06C65.2637 20.564 65.4224 20.9607 65.6184 21.25C65.8237 21.53 66.057 21.726 66.3184 21.838C66.589 21.9407 66.869 21.992 67.1584 21.992ZM75.84 23.14C75.364 23.14 74.9113 23.0607 74.482 22.902C74.062 22.7433 73.6933 22.4727 73.376 22.09C73.0587 21.698 72.8067 21.18 72.62 20.536C72.4333 19.8827 72.34 19.0707 72.34 18.1V17.82C72.34 16.9147 72.4333 16.1587 72.62 15.552C72.8067 14.9453 73.0587 14.46 73.376 14.096C73.6933 13.7227 74.062 13.4567 74.482 13.298C74.9113 13.1393 75.364 13.06 75.84 13.06C76.316 13.06 76.764 13.1393 77.184 13.298C77.6133 13.4567 77.9867 13.7227 78.304 14.096C78.6213 14.46 78.8733 14.9453 79.06 15.552C79.2467 16.1587 79.34 16.9147 79.34 17.82V18.1C79.34 19.0707 79.2467 19.8827 79.06 20.536C78.8733 21.18 78.6213 21.698 78.304 22.09C77.9867 22.4727 77.6133 22.7433 77.184 22.902C76.764 23.0607 76.316 23.14 75.84 23.14ZM75.84 21.992C76.1387 21.992 76.4187 21.9407 76.68 21.838C76.9413 21.726 77.17 21.53 77.366 21.25C77.5713 20.9607 77.73 20.564 77.842 20.06C77.9633 19.5467 78.024 18.8933 78.024 18.1V17.82C78.024 17.092 77.9633 16.4947 77.842 16.028C77.73 15.5613 77.5713 15.1927 77.366 14.922C77.17 14.6513 76.9413 14.4647 76.68 14.362C76.4187 14.2593 76.1387 14.208 75.84 14.208C75.5507 14.208 75.2707 14.2593 75 14.362C74.7387 14.4647 74.5053 14.6513 74.3 14.922C74.104 15.1927 73.9453 15.5613 73.824 16.028C73.712 16.4947 73.656 17.092 73.656 17.82V18.1C73.656 18.8933 73.712 19.5467 73.824 20.06C73.9453 20.564 74.104 20.9607 74.3 21.25C74.5053 21.53 74.7387 21.726 75 21.838C75.2707 21.9407 75.5507 21.992 75.84 21.992Z" fill="white"/>
<g filter="url(#filter1_b_1143_7073)">
<path d="M56 36C56 36 59.3273 36.0643 60 36.5C62.9781 38.429 64 44 64 44C64 44 65.4663 38.429 68.4444 36.5C69.1171 36.0643 72 36 72 36H56Z" fill="#1C1C1C" fill-opacity="0.7"/>
</g>
</g>
<path d="M22.685 105.665L22.9379 110.433L23.2341 105.665C23.2919 104.776 23.8626 104.061 24.585 103.996L28.4428 103.627L24.5922 103.317C23.8698 103.259 23.3063 102.551 23.2558 101.662L23.0029 96.8944L22.7067 101.662C22.6489 102.551 22.0782 103.266 21.3558 103.331L17.498 103.7L21.3486 104.01C22.071 104.068 22.6345 104.776 22.685 105.665Z" fill="#5FC9D0"/>
<path d="M55.635 119.161L50 119.461L55.635 119.813C56.6852 119.882 57.5304 120.56 57.6073 121.418L58.0427 126L58.4098 121.426C58.4781 120.568 59.3148 119.899 60.365 119.839L66 119.539L60.365 119.187C59.3148 119.118 58.4696 118.44 58.3927 117.582L57.9573 113L57.5902 117.574C57.5219 118.432 56.6852 119.101 55.635 119.161Z" fill="#4A7AC2"/>
<path d="M118.109 91.3084L118.455 98L118.861 91.3084C118.941 90.0614 119.723 89.0576 120.713 88.9664L126 88.4493L120.723 88.0133C119.733 87.9322 118.96 86.9386 118.891 85.6916L118.545 79L118.139 85.6916C118.059 86.9386 117.277 87.9424 116.287 88.0336L111 88.5507L116.277 88.9867C117.267 89.0678 118.04 90.0614 118.109 91.3084Z" fill="#5FC9D0"/>
<path d="M26.8389 30.3394L26.5386 24L26.1868 30.3394C26.1182 31.5208 25.4403 32.4717 24.5822 32.5582L20 33.048L24.5736 33.461C25.4317 33.5379 26.101 34.4792 26.1611 35.6606L26.4614 42L26.8132 35.6606C26.8818 34.4792 27.5597 33.5283 28.4178 33.4418L33 32.952L28.4264 32.539C27.5683 32.4621 26.899 31.5208 26.8389 30.3394Z" fill="#51BCDA"/>
<path d="M119.365 49.7868L125 49.5327L119.365 49.235C118.315 49.1769 117.47 48.6033 117.393 47.8772L116.957 44L116.59 47.87C116.522 48.596 115.685 49.1624 114.635 49.2132L109 49.4673L114.635 49.765C115.685 49.8231 116.53 50.3967 116.607 51.1228L117.043 55L117.41 51.13C117.478 50.404 118.315 49.8376 119.365 49.7868Z" fill="#1FAB98"/>
<defs>
<filter id="filter0_b_1143_7073" x="19" y="-16" width="90" height="76" filterUnits="userSpaceOnUse" color-interpolation-filters="sRGB">
<feFlood flood-opacity="0" result="BackgroundImageFix"/>
<feGaussianBlur in="BackgroundImageFix" stdDeviation="8"/>
<feComposite in2="SourceAlpha" operator="in" result="effect1_backgroundBlur_1143_7073"/>
<feBlend mode="normal" in="SourceGraphic" in2="effect1_backgroundBlur_1143_7073" result="shape"/>
</filter>
<filter id="filter1_b_1143_7073" x="40" y="20" width="48" height="40" filterUnits="userSpaceOnUse" color-interpolation-filters="sRGB">
<feFlood flood-opacity="0" result="BackgroundImageFix"/>
<feGaussianBlur in="BackgroundImageFix" stdDeviation="8"/>
<feComposite in2="SourceAlpha" operator="in" result="effect1_backgroundBlur_1143_7073"/>
<feBlend mode="normal" in="SourceGraphic" in2="effect1_backgroundBlur_1143_7073" result="shape"/>
</filter>
</defs>
</svg>
